<svg width="1657" height="500" viewBox="0 0 1657 500" fill="none" xmlns="http://www.w3.org/2000/svg">
<g clip-path="url(#clip0_401_123)">
<rect x="389" y="389" width="278" height="278" rx="138.5" transform="rotate(-180 389 389)" fill="#3E97FF"/>
<circle cx="249.5" cy="249.5" r="101.5" fill="white"/>
<circle cx="249.5" cy="249.5" r="73.5" fill="#3E97FF"/>
<ellipse cx="264.5" cy="202" rx="26.5" ry="26" fill="white"/>
<ellipse cx="299.5" cy="233" rx="9.5" ry="10" fill="white"/>
<rect width="66.3792" height="28.408" rx="6" transform="matrix(0.674981 -0.737835 -0.737835 -0.674981 161.837 363.914)" fill="white"/>
<rect width="26.8358" height="70.6215" rx="6" transform="matrix(0.674981 -0.737835 -0.737835 -0.674981 177.41 378.16)" fill="white"/>
<path d="M550.09 365.707L496.33 366C495.354 366 494.865 365.512 494.865 364.535L495.451 158.432C495.451 157.65 495.842 157.26 496.623 157.26L552.727 156.967C563.859 156.674 573.918 159.213 582.902 164.584C591.984 169.955 599.211 177.23 604.582 186.41C610.051 195.492 612.785 205.551 612.785 216.586V302.719C612.785 314.242 610.002 324.789 604.436 334.359C598.771 343.832 591.252 351.4 581.877 357.064C572.502 362.631 561.906 365.512 550.09 365.707ZM552.727 192.855L531.779 193.148L531.486 329.086H550.09C557.512 329.086 563.762 326.498 568.84 321.322C573.918 316.146 576.457 309.945 576.457 302.719V216.293C576.457 209.945 574.113 204.428 569.426 199.74C564.738 194.955 559.172 192.66 552.727 192.855ZM734.514 366H637.541C636.76 366 636.369 365.512 636.369 364.535L636.662 158.432C636.662 157.65 637.053 157.26 637.834 157.26H734.221C735.002 157.26 735.393 157.748 735.393 158.725V192.27C735.393 193.051 735.002 193.441 734.221 193.441H672.697V240.316H734.221C735.002 240.316 735.393 240.707 735.393 241.488L735.686 275.473C735.686 276.254 735.295 276.645 734.514 276.645H672.697V329.086H734.514C735.295 329.086 735.686 329.574 735.686 330.551V364.828C735.686 365.609 735.295 366 734.514 366ZM860.49 366H763.518C762.736 366 762.346 365.512 762.346 364.535L762.639 158.432C762.639 157.65 763.029 157.26 763.811 157.26H860.197C860.979 157.26 861.369 157.748 861.369 158.725V192.27C861.369 193.051 860.979 193.441 860.197 193.441H798.674V240.316H860.197C860.979 240.316 861.369 240.707 861.369 241.488L861.662 275.473C861.662 276.254 861.271 276.645 860.49 276.645H798.674V329.086H860.49C861.271 329.086 861.662 329.574 861.662 330.551V364.828C861.662 365.609 861.271 366 860.49 366ZM923.479 366H889.787C888.811 366 888.322 365.512 888.322 364.535L888.908 158.432C888.908 157.65 889.299 157.26 890.08 157.26H947.795C966.154 157.26 980.656 162.875 991.301 174.105C1002.04 185.238 1007.41 200.424 1007.41 219.662C1007.41 233.725 1004.63 245.98 999.064 256.43C993.4 266.781 986.076 274.789 977.092 280.453C968.107 286.117 958.342 288.949 947.795 288.949H924.943V364.535C924.943 365.512 924.455 366 923.479 366ZM947.795 192.855L924.943 193.148V252.621H947.795C954.143 252.621 959.66 249.594 964.348 243.539C969.035 237.387 971.379 229.428 971.379 219.662C971.379 211.85 969.279 205.453 965.08 200.473C960.881 195.395 955.119 192.855 947.795 192.855ZM1125.92 366H1028.95C1028.17 366 1027.78 365.512 1027.78 364.535L1028.07 158.432C1028.07 157.65 1028.46 157.26 1029.24 157.26H1125.63C1126.41 157.26 1126.8 157.748 1126.8 158.725V192.27C1126.8 193.051 1126.41 193.441 1125.63 193.441H1064.1V240.316H1125.63C1126.41 240.316 1126.8 240.707 1126.8 241.488L1127.09 275.473C1127.09 276.254 1126.7 276.645 1125.92 276.645H1064.1V329.086H1125.92C1126.7 329.086 1127.09 329.574 1127.09 330.551V364.828C1127.09 365.609 1126.7 366 1125.92 366ZM1210.15 366H1175.72C1175.04 366 1174.7 365.609 1174.7 364.828L1174.99 279.574L1134.86 158.432C1134.66 157.65 1134.95 157.26 1135.73 157.26H1169.13C1170.11 157.26 1170.7 157.65 1170.89 158.432L1193.01 239.145L1215.57 158.432C1215.76 157.65 1216.25 157.26 1217.03 157.26H1250.72C1251.51 157.26 1251.8 157.65 1251.6 158.432L1211.03 278.402L1211.32 364.828C1211.32 365.609 1210.93 366 1210.15 366ZM1366.15 366H1269.18C1268.4 366 1268.01 365.512 1268.01 364.535L1268.3 158.432C1268.3 157.65 1268.69 157.26 1269.47 157.26H1365.86C1366.64 157.26 1367.03 157.748 1367.03 158.725V192.27C1367.03 193.051 1366.64 193.441 1365.86 193.441H1304.34V240.316H1365.86C1366.64 240.316 1367.03 240.707 1367.03 241.488L1367.33 275.473C1367.33 276.254 1366.94 276.645 1366.15 276.645H1304.34V329.086H1366.15C1366.94 329.086 1367.33 329.574 1367.33 330.551V364.828C1367.33 365.609 1366.94 366 1366.15 366Z" fill="#3E97FF"/>
</g>
<defs>
<clipPath id="clip0_401_123">
<rect width="1657" height="500" fill="white"/>
</clipPath>
</defs>
</svg>
