<svg width="301" height="300" viewBox="0 0 301 300" fill="none" xmlns="http://www.w3.org/2000/svg">
<rect x="100.5" y="189.5" width="100" height="30" rx="15" fill="#3E97FF"/>
<rect opacity="0.3" x="100.5" y="189.5" width="100" height="30" rx="15" fill="black"/>
<rect x="100.5" y="186" width="100" height="30" rx="15" fill="#3E97FF"/>
<path d="M123.199 207.576C122.564 207.576 121.967 207.501 121.407 207.352C120.847 207.215 120.324 207.016 119.839 206.755L120.585 204.72C120.859 204.882 121.189 205.025 121.575 205.149C121.96 205.274 122.34 205.336 122.713 205.336C123.41 205.336 123.964 205.075 124.375 204.552C124.785 204.017 124.991 203.221 124.991 202.163C124.991 201.167 124.785 200.408 124.375 199.885C123.964 199.363 123.323 199.101 122.452 199.101C122.041 199.101 121.618 199.164 121.183 199.288C120.747 199.4 120.386 199.543 120.1 199.717V197.421C120.486 197.247 120.921 197.11 121.407 197.011C121.892 196.911 122.408 196.861 122.956 196.861C124.101 196.861 125.034 197.073 125.756 197.496C126.478 197.919 127.007 198.529 127.343 199.325C127.679 200.109 127.847 201.055 127.847 202.163C127.847 203.93 127.442 205.274 126.633 206.195C125.824 207.116 124.68 207.576 123.199 207.576ZM119.169 195.685V194.509L121.054 193.725H127.718V195.685H119.169ZM132.937 207.52C132.377 207.52 131.904 207.433 131.518 207.259C131.132 207.085 130.84 206.823 130.641 206.475C130.441 206.114 130.342 205.666 130.342 205.131V197.104H133.142V204.795C133.142 205.031 133.192 205.205 133.291 205.317C133.403 205.429 133.571 205.485 133.795 205.485C133.895 205.485 134.001 205.473 134.113 205.448C134.225 205.423 134.33 205.392 134.43 205.355L134.691 207.147C134.455 207.271 134.187 207.365 133.889 207.427C133.59 207.489 133.273 207.52 132.937 207.52ZM136.242 207.333V201.267C136.242 199.836 136.621 198.747 137.38 198C138.139 197.241 139.34 196.861 140.983 196.861C142.638 196.861 143.833 197.241 144.567 198C145.314 198.747 145.687 199.836 145.687 201.267V207.333H142.906V201.229C142.906 200.57 142.75 200.053 142.439 199.68C142.14 199.294 141.642 199.101 140.946 199.101C140.261 199.101 139.763 199.294 139.452 199.68C139.154 200.053 139.004 200.57 139.004 201.229V202.853L139.06 202.872C139.297 202.387 139.577 202.069 139.9 201.92C140.236 201.758 140.69 201.677 141.263 201.677H141.692V203.768H141.263C140.641 203.768 140.168 203.874 139.844 204.085C139.521 204.297 139.297 204.577 139.172 204.925C139.06 205.261 139.004 205.641 139.004 206.064V207.333H136.242ZM151.819 207.576C151.084 207.576 150.344 207.495 149.597 207.333C148.863 207.172 148.21 206.941 147.637 206.643L148.421 204.421C148.67 204.558 148.969 204.701 149.317 204.851C149.666 205 150.045 205.125 150.456 205.224C150.867 205.324 151.284 205.373 151.707 205.373C152.204 205.373 152.578 205.305 152.827 205.168C153.088 205.019 153.219 204.795 153.219 204.496C153.219 204.272 153.132 204.092 152.957 203.955C152.796 203.805 152.553 203.669 152.229 203.544C151.906 203.407 151.52 203.264 151.072 203.115C150.412 202.878 149.846 202.623 149.373 202.349C148.9 202.076 148.533 201.74 148.272 201.341C148.023 200.943 147.899 200.445 147.899 199.848C147.899 199.164 148.073 198.604 148.421 198.168C148.77 197.733 149.261 197.409 149.896 197.197C150.531 196.973 151.271 196.861 152.117 196.861C152.814 196.861 153.443 196.917 154.003 197.029C154.563 197.141 154.998 197.285 155.309 197.459V199.661C155.098 199.562 154.818 199.462 154.469 199.363C154.133 199.263 153.766 199.182 153.368 199.12C152.982 199.045 152.609 199.008 152.248 199.008C151.738 199.008 151.352 199.077 151.091 199.213C150.829 199.35 150.699 199.543 150.699 199.792C150.699 199.991 150.786 200.159 150.96 200.296C151.147 200.433 151.414 200.564 151.763 200.688C152.111 200.8 152.528 200.943 153.013 201.117C153.66 201.341 154.208 201.59 154.656 201.864C155.104 202.138 155.44 202.474 155.664 202.872C155.9 203.27 156.019 203.762 156.019 204.347C156.019 204.907 155.888 205.436 155.627 205.933C155.378 206.419 154.948 206.817 154.339 207.128C153.729 207.427 152.889 207.576 151.819 207.576ZM160.677 207.333V200.576C160.677 200.053 160.553 199.674 160.304 199.437C160.068 199.201 159.676 199.083 159.128 199.083C158.717 199.083 158.338 199.139 157.989 199.251C157.653 199.363 157.336 199.5 157.037 199.661V197.421C157.311 197.297 157.697 197.173 158.195 197.048C158.693 196.924 159.277 196.861 159.949 196.861C160.634 196.861 161.237 196.961 161.76 197.16C162.295 197.359 162.712 197.695 163.011 198.168C163.322 198.629 163.477 199.263 163.477 200.072V207.333H160.677ZM167.837 201.304C167.265 201.304 166.811 201.217 166.475 201.043C166.139 200.869 165.896 200.638 165.747 200.352C165.597 200.053 165.523 199.742 165.523 199.419C165.523 199.207 165.554 198.989 165.616 198.765C165.678 198.529 165.772 198.299 165.896 198.075L167.931 198.336C167.906 198.423 167.881 198.517 167.856 198.616C167.844 198.716 167.837 198.821 167.837 198.933C167.837 199.095 167.887 199.226 167.987 199.325C168.086 199.413 168.261 199.456 168.509 199.456H170.619V201.304H167.837ZM167.837 206.531C167.265 206.531 166.811 206.444 166.475 206.269C166.139 206.095 165.896 205.865 165.747 205.579C165.597 205.28 165.523 204.969 165.523 204.645C165.523 204.434 165.554 204.216 165.616 203.992C165.678 203.756 165.772 203.525 165.896 203.301L167.931 203.563C167.906 203.65 167.881 203.743 167.856 203.843C167.844 203.942 167.837 204.048 167.837 204.16C167.837 204.322 167.887 204.453 167.987 204.552C168.086 204.639 168.261 204.683 168.509 204.683H170.619V206.531H167.837ZM172.941 207.333V197.104H175.704V200.931H175.778L178.952 197.104H182.032V197.197L175.704 204.216V207.333H172.941ZM179.194 207.333V203.955C179.194 203.295 179.001 202.822 178.616 202.536C178.242 202.237 177.695 202.088 176.973 202.088L178.616 200.147C179.362 200.147 179.984 200.296 180.482 200.595C180.98 200.893 181.353 201.298 181.602 201.808C181.864 202.306 181.994 202.878 181.994 203.525V207.333H179.194ZM177.986 196.096C177.886 195.922 177.805 195.698 177.743 195.424C177.668 195.15 177.631 194.877 177.631 194.603C177.631 194.254 177.699 193.937 177.836 193.651C177.961 193.365 178.191 193.141 178.527 192.979C178.851 192.805 179.299 192.717 179.871 192.717H182.578V194.603H180.786C180.549 194.603 180.369 194.646 180.244 194.733C180.107 194.808 180.039 194.951 180.039 195.163C180.039 195.25 180.051 195.343 180.076 195.443C180.101 195.53 180.139 195.623 180.188 195.723L177.986 196.096Z" fill="white"/>
<rect x="25.5" y="155" width="250" height="8" rx="4" fill="#D9D9D9"/>
<rect x="27.5" y="157" width="118" height="4" rx="2" fill="#3E97FF"/>
<line x1="36.5" y1="165.5" x2="68.5" y2="165.5" stroke="#C7C7C7"/>
<line x1="69.5" y1="165.5" x2="74.5" y2="165.5" stroke="#C7C7C7"/>
<path d="M120.412 136V133.72C120.412 133.216 120.524 132.852 120.748 132.628C120.972 132.396 121.256 132.236 121.6 132.148L121.612 132.112L120.292 131.608V131.212C120.292 130.884 120.4 130.576 120.616 130.288C120.832 129.992 121.14 129.756 121.54 129.58C121.948 129.396 122.432 129.304 122.992 129.304C123.48 129.304 123.932 129.384 124.348 129.544C124.764 129.696 125.096 129.94 125.344 130.276C125.6 130.604 125.728 131.036 125.728 131.572V136H124.66V131.68C124.66 131.144 124.496 130.764 124.168 130.54C123.848 130.308 123.452 130.192 122.98 130.192C122.492 130.192 122.104 130.296 121.816 130.504C121.528 130.704 121.384 130.96 121.384 131.272L122.68 131.92L122.584 132.496C122.288 132.496 122.028 132.596 121.804 132.796C121.588 132.988 121.48 133.296 121.48 133.72V136H120.412ZM124.752 128.668C124.352 128.668 124.036 128.576 123.804 128.392C123.572 128.2 123.456 127.932 123.456 127.588C123.456 127.236 123.572 126.968 123.804 126.784C124.036 126.6 124.352 126.508 124.752 126.508C125.152 126.508 125.472 126.6 125.712 126.784C125.952 126.968 126.072 127.236 126.072 127.588C126.072 127.932 125.952 128.2 125.712 128.392C125.472 128.576 125.152 128.668 124.752 128.668ZM124.752 128.104C124.944 128.104 125.092 128.056 125.196 127.96C125.292 127.864 125.34 127.74 125.34 127.588C125.34 127.428 125.292 127.304 125.196 127.216C125.092 127.12 124.944 127.072 124.752 127.072C124.568 127.072 124.428 127.12 124.332 127.216C124.228 127.304 124.176 127.428 124.176 127.588C124.176 127.74 124.228 127.864 124.332 127.96C124.428 128.056 124.568 128.104 124.752 128.104ZM129.527 136V131.332C129.527 130.94 129.435 130.652 129.251 130.468C129.075 130.284 128.775 130.192 128.351 130.192C128.063 130.192 127.791 130.232 127.535 130.312C127.287 130.384 127.047 130.488 126.815 130.624V129.664C126.975 129.584 127.203 129.504 127.499 129.424C127.795 129.344 128.147 129.304 128.555 129.304C128.971 129.304 129.331 129.364 129.635 129.484C129.939 129.604 130.175 129.804 130.343 130.084C130.511 130.356 130.595 130.72 130.595 131.176V136H129.527ZM136.394 136V131.62C136.394 131.1 136.274 130.732 136.034 130.516C135.802 130.292 135.41 130.18 134.858 130.18C134.458 130.18 134.074 130.236 133.706 130.348C133.346 130.452 133.002 130.6 132.674 130.792V129.796C132.906 129.676 133.218 129.564 133.61 129.46C134.01 129.356 134.458 129.304 134.954 129.304C135.378 129.304 135.746 129.352 136.058 129.448C136.37 129.536 136.626 129.672 136.826 129.856C137.034 130.04 137.19 130.276 137.294 130.564C137.398 130.844 137.45 131.176 137.45 131.56V136H136.394ZM134.33 136.12C133.626 136.12 133.086 135.96 132.71 135.64C132.342 135.312 132.158 134.844 132.158 134.236C132.158 133.572 132.398 133.06 132.878 132.7C133.366 132.34 134.154 132.128 135.242 132.064L136.61 131.98V132.868L135.386 132.952C134.57 133.008 134.006 133.136 133.694 133.336C133.39 133.536 133.238 133.828 133.238 134.212C133.238 134.572 133.35 134.836 133.574 135.004C133.806 135.172 134.126 135.256 134.534 135.256C134.67 135.256 134.794 135.248 134.906 135.232C135.018 135.208 135.126 135.18 135.23 135.148L135.398 135.952C135.246 136.008 135.078 136.048 134.894 136.072C134.718 136.104 134.53 136.12 134.33 136.12ZM135.752 128.38C135.416 128.38 135.148 128.332 134.948 128.236C134.748 128.14 134.604 128.016 134.516 127.864C134.42 127.712 134.372 127.552 134.372 127.384C134.372 127.264 134.392 127.136 134.432 127C134.464 126.856 134.508 126.74 134.564 126.652L135.464 126.808C135.448 126.84 135.432 126.896 135.416 126.976C135.4 127.048 135.392 127.116 135.392 127.18C135.392 127.284 135.424 127.376 135.488 127.456C135.552 127.528 135.66 127.564 135.812 127.564H138.848V128.38H135.752ZM140.478 136L138.426 129.424H139.506L141.282 135.076H141.426C141.618 135.076 141.806 135.032 141.99 134.944C142.174 134.848 142.33 134.728 142.458 134.584C142.698 134.32 142.874 133.988 142.986 133.588C143.098 133.18 143.154 132.78 143.154 132.388C143.154 131.724 143.002 131.204 142.698 130.828C142.402 130.444 141.99 130.252 141.462 130.252C141.358 130.252 141.254 130.26 141.15 130.276C141.054 130.292 140.974 130.312 140.91 130.336L140.646 129.484C140.814 129.436 140.97 129.404 141.114 129.388C141.266 129.372 141.402 129.364 141.522 129.364C141.922 129.364 142.278 129.424 142.59 129.544C142.91 129.656 143.182 129.824 143.406 130.048C143.686 130.32 143.89 130.66 144.018 131.068C144.154 131.476 144.222 131.928 144.222 132.424C144.222 133.048 144.126 133.604 143.934 134.092C143.742 134.572 143.502 134.956 143.214 135.244C142.982 135.476 142.698 135.66 142.362 135.796C142.026 135.932 141.598 136 141.078 136H140.478ZM147.163 136.12C146.851 136.12 146.547 136.088 146.251 136.024C145.963 135.96 145.655 135.84 145.327 135.664L145.663 134.848C145.839 134.952 146.039 135.044 146.263 135.124C146.487 135.196 146.747 135.232 147.043 135.232C147.635 135.232 148.095 135.016 148.423 134.584C148.759 134.144 148.927 133.512 148.927 132.688C148.927 131.88 148.755 131.264 148.411 130.84C148.075 130.408 147.555 130.192 146.851 130.192C146.595 130.192 146.335 130.22 146.071 130.276C145.807 130.332 145.575 130.416 145.375 130.528V129.628C145.607 129.508 145.859 129.424 146.131 129.376C146.411 129.328 146.691 129.304 146.971 129.304C147.691 129.304 148.275 129.448 148.723 129.736C149.171 130.016 149.499 130.408 149.707 130.912C149.915 131.416 150.019 132.008 150.019 132.688C150.019 133.744 149.779 134.58 149.299 135.196C148.827 135.812 148.115 136.12 147.163 136.12ZM144.727 128.38V127.912L145.603 127.528H149.827V128.38H144.727ZM153.237 136.12C153.021 136.12 152.813 136.084 152.613 136.012C152.413 135.94 152.249 135.812 152.121 135.628C151.993 135.444 151.929 135.188 151.929 134.86V129.424H152.997V134.728C152.997 134.912 153.037 135.044 153.117 135.124C153.197 135.204 153.325 135.244 153.501 135.244C153.573 135.244 153.649 135.236 153.729 135.22C153.809 135.204 153.885 135.184 153.957 135.16L154.101 135.94C153.949 136.012 153.801 136.06 153.657 136.084C153.513 136.108 153.373 136.12 153.237 136.12ZM155.171 136V131.8C155.171 130.992 155.387 130.376 155.819 129.952C156.251 129.52 156.939 129.304 157.883 129.304C158.835 129.304 159.523 129.52 159.947 129.952C160.379 130.376 160.595 130.992 160.595 131.8V136H159.527V131.8C159.527 131.264 159.387 130.864 159.107 130.6C158.827 130.328 158.415 130.192 157.871 130.192C157.335 130.192 156.927 130.328 156.647 130.6C156.375 130.864 156.239 131.264 156.239 131.8V133.132L156.275 133.144C156.451 132.832 156.667 132.628 156.923 132.532C157.179 132.428 157.539 132.376 158.003 132.376H158.399V133.252H158.003C157.515 133.252 157.143 133.32 156.887 133.456C156.639 133.592 156.467 133.772 156.371 133.996C156.283 134.212 156.239 134.456 156.239 134.728V136H155.171ZM164.39 136.12C163.918 136.12 163.478 136.076 163.07 135.988C162.67 135.892 162.33 135.78 162.05 135.652L162.362 134.788C162.53 134.852 162.722 134.92 162.938 134.992C163.154 135.064 163.386 135.124 163.634 135.172C163.89 135.212 164.15 135.232 164.414 135.232C164.838 135.232 165.19 135.152 165.47 134.992C165.75 134.832 165.89 134.6 165.89 134.296C165.89 134.112 165.838 133.956 165.734 133.828C165.638 133.692 165.486 133.568 165.278 133.456C165.07 133.344 164.802 133.236 164.474 133.132C163.97 132.972 163.542 132.804 163.19 132.628C162.846 132.444 162.582 132.228 162.398 131.98C162.222 131.724 162.134 131.408 162.134 131.032C162.134 130.696 162.222 130.4 162.398 130.144C162.582 129.88 162.862 129.676 163.238 129.532C163.622 129.38 164.11 129.304 164.702 129.304C165.086 129.304 165.446 129.34 165.782 129.412C166.126 129.476 166.394 129.568 166.586 129.688V130.588C166.45 130.524 166.278 130.46 166.07 130.396C165.87 130.332 165.65 130.28 165.41 130.24C165.17 130.2 164.922 130.18 164.666 130.18C164.13 130.18 163.75 130.264 163.526 130.432C163.31 130.592 163.202 130.776 163.202 130.984C163.202 131.16 163.25 131.308 163.346 131.428C163.45 131.548 163.622 131.664 163.862 131.776C164.11 131.888 164.442 132.016 164.858 132.16C165.242 132.288 165.594 132.436 165.914 132.604C166.234 132.772 166.486 132.984 166.67 133.24C166.862 133.488 166.958 133.808 166.958 134.2C166.958 134.536 166.874 134.852 166.706 135.148C166.546 135.436 166.278 135.672 165.902 135.856C165.526 136.032 165.022 136.12 164.39 136.12ZM170.262 136V131.332C170.262 130.94 170.17 130.652 169.986 130.468C169.81 130.284 169.51 130.192 169.086 130.192C168.798 130.192 168.526 130.232 168.27 130.312C168.022 130.384 167.782 130.488 167.55 130.624V129.664C167.71 129.584 167.938 129.504 168.234 129.424C168.53 129.344 168.882 129.304 169.29 129.304C169.706 129.304 170.066 129.364 170.37 129.484C170.674 129.604 170.91 129.804 171.078 130.084C171.246 130.356 171.33 130.72 171.33 131.176V136H170.262ZM174.141 131.872C173.813 131.872 173.545 131.824 173.337 131.728C173.137 131.624 172.993 131.496 172.905 131.344C172.817 131.184 172.773 131.016 172.773 130.84C172.773 130.72 172.789 130.596 172.821 130.468C172.861 130.34 172.909 130.232 172.965 130.144L173.865 130.288C173.849 130.328 173.829 130.384 173.805 130.456C173.789 130.528 173.781 130.6 173.781 130.672C173.781 130.776 173.809 130.864 173.865 130.936C173.921 131 174.025 131.032 174.177 131.032H175.893V131.872H174.141ZM174.141 135.232C173.813 135.232 173.545 135.184 173.337 135.088C173.137 134.984 172.993 134.856 172.905 134.704C172.817 134.544 172.773 134.376 172.773 134.2C172.773 134.08 172.789 133.956 172.821 133.828C172.861 133.7 172.909 133.592 172.965 133.504L173.865 133.648C173.849 133.688 173.829 133.744 173.805 133.816C173.789 133.888 173.781 133.96 173.781 134.032C173.781 134.136 173.809 134.224 173.865 134.296C173.921 134.36 174.025 134.392 174.177 134.392H175.893V135.232H174.141ZM177.427 136V129.424H178.495V132.268H178.531L181.267 129.424H182.515V129.46L178.495 133.528V136H177.427ZM181.507 136V133.684C181.507 133.212 181.363 132.844 181.075 132.58C180.787 132.316 180.311 132.184 179.647 132.184L180.271 131.404C180.775 131.404 181.195 131.496 181.531 131.68C181.875 131.856 182.135 132.112 182.311 132.448C182.487 132.784 182.575 133.188 182.575 133.66V136H181.507ZM180.648 128.728C180.592 128.64 180.548 128.528 180.516 128.392C180.476 128.248 180.456 128.108 180.456 127.972C180.456 127.804 180.492 127.648 180.564 127.504C180.636 127.352 180.764 127.228 180.948 127.132C181.132 127.036 181.388 126.988 181.716 126.988H183.36V127.816H181.992C181.832 127.816 181.704 127.848 181.608 127.912C181.512 127.968 181.464 128.068 181.464 128.212C181.464 128.268 181.476 128.328 181.5 128.392C181.516 128.456 181.54 128.52 181.572 128.584L180.648 128.728Z" fill="white"/>
<mask id="path-10-inside-1_185_24490" fill="white">
<path d="M174.895 78.5325C173.596 72.7364 170.275 67.5922 165.529 64.0215C160.782 60.4507 154.919 58.6868 148.99 59.0457C143.06 59.4046 137.453 61.8628 133.171 65.98C128.89 70.0972 126.214 75.6044 125.624 81.5149C125.033 87.4254 126.567 93.353 129.949 98.2358C133.331 103.119 138.342 106.638 144.083 108.162C149.824 109.687 155.92 109.118 161.279 106.557C166.639 103.996 170.911 99.6099 173.331 94.1853L170.73 93.0249C168.586 97.8314 164.8 101.717 160.051 103.987C155.302 106.256 149.901 106.76 144.814 105.409C139.727 104.058 135.288 100.94 132.291 96.6139C129.293 92.2874 127.935 87.0351 128.458 81.798C128.981 76.5609 131.352 71.6812 135.146 68.0331C138.939 64.385 143.908 62.2068 149.162 61.8888C154.415 61.5708 159.61 63.1338 163.816 66.2977C168.022 69.4616 170.964 74.0197 172.115 79.1555L174.895 78.5325Z"/>
</mask>
<path d="M174.895 78.5325C173.596 72.7364 170.275 67.5922 165.529 64.0215C160.782 60.4507 154.919 58.6868 148.99 59.0457C143.06 59.4046 137.453 61.8628 133.171 65.98C128.89 70.0972 126.214 75.6044 125.624 81.5149C125.033 87.4254 126.567 93.353 129.949 98.2358C133.331 103.119 138.342 106.638 144.083 108.162C149.824 109.687 155.92 109.118 161.279 106.557C166.639 103.996 170.911 99.6099 173.331 94.1853L170.73 93.0249C168.586 97.8314 164.8 101.717 160.051 103.987C155.302 106.256 149.901 106.76 144.814 105.409C139.727 104.058 135.288 100.94 132.291 96.6139C129.293 92.2874 127.935 87.0351 128.458 81.798C128.981 76.5609 131.352 71.6812 135.146 68.0331C138.939 64.385 143.908 62.2068 149.162 61.8888C154.415 61.5708 159.61 63.1338 163.816 66.2977C168.022 69.4616 170.964 74.0197 172.115 79.1555L174.895 78.5325Z" stroke="#252F4A" stroke-width="4" stroke-dasharray="4 4" mask="url(#path-10-inside-1_185_24490)"/>
<path d="M58.2457 84.0623L58.8477 86.3561L49.6667 88.7161L49.1971 86.91L52.7491 81.2809C53.5619 79.9805 53.592 79.3063 53.4415 78.7163C53.1946 77.759 52.3939 77.3737 51.1116 77.7049C50.6194 77.8093 50.1607 78.0338 49.7763 78.3584C49.3919 78.6829 49.0937 79.0975 48.9081 79.5651L46.5 78.7705C47.102 77.157 48.559 75.8386 50.7142 75.2726C53.4234 74.5803 55.5847 75.5074 56.1325 77.6808C56.4396 78.8849 56.3854 80.0227 55.085 82.0395L52.9719 85.3928L58.2457 84.0623Z" fill="#252F4A"/>
<path d="M58.4023 79.9928C57.3728 75.9772 59.0043 73.1356 62.0145 72.371C65.0246 71.6064 67.806 73.3042 68.8355 77.3137C69.865 81.3233 68.2335 84.1648 65.2233 84.9355C62.2132 85.7061 59.4318 84.0023 58.4023 79.9928ZM65.9879 78.0422C65.2775 75.2788 64.0132 74.3878 62.6045 74.749C61.1957 75.1103 60.5395 76.501 61.2499 79.2583C61.9603 82.0156 63.2246 82.9126 64.6153 82.5574C66.006 82.2022 66.6983 80.7995 65.9879 78.0422Z" fill="#252F4A"/>
<path d="M69.5098 74.0866C68.9981 72.1059 69.7747 70.4744 71.4062 70.083C73.0377 69.6917 74.4826 70.6851 75.0184 72.6778C75.5542 74.6705 74.7354 76.29 73.122 76.6813C71.5085 77.0726 70.0155 76.0612 69.5098 74.0866ZM74.1274 72.8825C73.718 71.2991 72.7307 70.5526 71.6049 70.8476C70.4791 71.1426 69.9734 72.2805 70.4008 73.8578C70.8282 75.4351 71.7734 76.1877 72.9233 75.8927C74.0732 75.5977 74.5307 74.4779 74.1274 72.9006V72.8825ZM78.7871 68.2589L79.8106 68L74.621 82.2983L73.5976 82.5632L78.7871 68.2589ZM78.4259 77.8914C77.9202 75.9107 78.7089 74.2792 80.3223 73.8879C81.9358 73.4966 83.4047 74.4899 83.9345 76.4827C84.4643 78.4754 83.6696 80.0949 82.0381 80.4802C80.4066 80.8655 78.9376 79.8781 78.4259 77.9035V77.8914ZM83.0435 76.6873C82.6401 75.1221 81.6709 74.3575 80.521 74.6525C79.3711 74.9475 78.8895 76.0673 79.3169 77.6626C79.7444 79.258 80.7136 79.9865 81.8394 79.6975C82.9652 79.4085 83.4469 78.2767 83.0495 76.7174L83.0435 76.6873Z" fill="#252F4A"/>
<path d="M239.845 205.451C240.338 207.889 238.931 210.513 234.793 211.315C232.853 211.742 230.83 211.586 228.978 210.868L229.763 208.051C231.135 208.66 232.662 208.827 234.133 208.529C235.804 208.194 236.701 207.309 236.468 206.127C236.269 205.031 235.304 204.503 233.411 204.897L231.877 205.176L231.438 202.967L233.736 199.012L227.583 200.242L227.051 197.554L237.16 195.537L237.597 197.704L235.097 202.087C237.783 201.984 239.422 203.326 239.845 205.451Z" fill="#252F4A"/>
<path d="M240.834 202.341C239.876 197.546 241.967 194.345 245.509 193.633C249.051 192.921 252.238 195.101 253.191 199.866C254.143 204.631 252.064 207.867 248.497 208.577C244.931 209.287 241.786 207.106 240.834 202.341ZM249.855 200.534C249.198 197.258 247.767 196.123 246.097 196.457C244.426 196.792 243.564 198.381 244.228 201.693C244.892 205.005 246.31 206.105 247.957 205.775C249.604 205.445 250.508 203.818 249.855 200.534Z" fill="#252F4A"/>
<path d="M254.229 196.122C253.757 193.76 254.765 191.937 256.707 191.547C258.649 191.157 260.279 192.445 260.754 194.819C261.228 197.192 260.194 199.008 258.275 199.388C256.355 199.768 254.7 198.472 254.229 196.122ZM259.72 195.025C259.342 193.148 258.24 192.235 256.895 192.479C255.551 192.724 254.89 194.068 255.264 195.921C255.637 197.775 256.72 198.716 258.089 198.467C259.457 198.218 260.097 196.927 259.72 195.025ZM265.477 189.902L266.697 189.68L259.721 206.094L258.501 206.316L265.477 189.902ZM264.465 201.156C263.998 198.793 265.024 196.966 266.944 196.587C268.863 196.207 270.519 197.503 270.989 199.852C271.459 202.202 270.453 204.038 268.511 204.428C266.569 204.818 264.912 203.516 264.441 201.16L264.465 201.156ZM269.956 200.059C269.588 198.204 268.499 197.264 267.131 197.513C265.762 197.762 265.126 199.071 265.498 200.95C265.87 202.828 266.978 203.74 268.323 203.495C269.668 203.25 270.307 201.922 269.932 200.063L269.956 200.059Z" fill="#252F4A"/>
<path d="M233.579 108.796C233.818 109.979 233.158 111.187 231.247 111.574C230.349 111.773 229.412 111.705 228.552 111.378L228.923 110.069C229.557 110.353 230.265 110.428 230.944 110.284C231.721 110.125 232.133 109.705 232.022 109.159C231.912 108.613 231.501 108.361 230.288 108.606L228.578 108.953L228.157 105.12L232.236 104.291L232.488 105.534L229.699 106.102L229.85 107.39L230.396 107.28C232.375 106.879 233.339 107.609 233.579 108.796Z" fill="#252F4A"/>
<path d="M233.957 107.427C233.508 105.217 234.477 103.716 236.134 103.369C237.79 103.022 239.254 104.037 239.703 106.247C240.151 108.457 239.189 109.951 237.526 110.304C235.864 110.658 234.408 109.632 233.957 107.427ZM238.127 106.581C237.819 105.064 237.154 104.539 236.38 104.696C235.607 104.854 235.21 105.59 235.519 107.11C235.828 108.63 236.487 109.15 237.253 108.995C238.019 108.84 238.443 108.098 238.135 106.582L238.127 106.581Z" fill="#252F4A"/>
<path d="M240.155 104.525C239.934 103.437 240.4 102.586 241.298 102.403C242.197 102.22 242.952 102.814 243.176 103.913C243.4 105.012 242.924 105.855 242.033 106.035C241.142 106.216 240.376 105.617 240.155 104.525ZM245.375 101.624L245.94 101.51L242.712 109.13L242.147 109.244L245.375 101.624ZM242.717 104.004C242.54 103.132 242.024 102.703 241.402 102.829C240.78 102.955 240.482 103.574 240.651 104.424C240.821 105.274 241.333 105.726 241.966 105.599C242.6 105.473 242.875 104.879 242.699 104.011L242.717 104.004ZM244.911 106.841C244.691 105.752 245.163 104.899 246.054 104.718C246.945 104.538 247.712 105.14 247.932 106.229C248.153 107.317 247.687 108.168 246.789 108.351C245.891 108.534 245.114 107.939 244.893 106.847L244.911 106.841ZM247.451 106.316C247.274 105.456 246.768 105.01 246.136 105.141C245.504 105.271 245.208 105.864 245.384 106.732C245.56 107.6 246.079 108.037 246.701 107.911C247.322 107.785 247.605 107.18 247.437 106.333L247.451 106.316Z" fill="#252F4A"/>
</svg>
