<svg width="301" height="300" viewBox="0 0 301 300" fill="none" xmlns="http://www.w3.org/2000/svg">
<path d="M23.865 136.651L22.8722 136.684L23.3043 149.918L24.2971 149.886L23.865 136.651Z" fill="#3E97FF"/>
<path d="M23.4928 125.229L22.5 125.262L22.7055 131.556L23.6984 131.524L23.4928 125.229Z" fill="#3E97FF"/>
<path d="M36.9052 220.964H226.501C227.515 220.968 228.519 220.768 229.452 220.375C230.386 219.981 231.231 219.403 231.936 218.674C232.64 217.945 233.19 217.082 233.551 216.135C233.913 215.188 234.08 214.178 234.041 213.166L229.819 83.7981C229.735 81.714 228.853 79.742 227.355 78.2904C225.857 76.8388 223.858 76.0188 221.773 76.0001H32.1767C31.1628 75.9954 30.1584 76.1957 29.224 76.5891C28.2895 76.9825 27.4443 77.5608 26.739 78.2892C26.0338 79.0177 25.4832 79.8812 25.1202 80.8279C24.7573 81.7746 24.5895 82.7849 24.627 83.7981L28.8489 213.146C28.9304 215.234 29.8127 217.211 31.3126 218.667C32.8126 220.122 34.8151 220.945 36.9052 220.964Z" fill="#3E97FF"/>
<path d="M37.5111 220.964H227.107C228.121 220.968 229.125 220.768 230.06 220.375C230.994 219.981 231.84 219.403 232.545 218.674C233.25 217.946 233.801 217.083 234.164 216.136C234.527 215.189 234.694 214.179 234.657 213.166L230.415 83.7981C230.329 81.7131 229.444 79.7411 227.945 78.2897C226.445 76.8384 224.446 76.0187 222.359 76.0001H32.7826C31.7692 75.9953 30.7653 76.1957 29.8313 76.5892C28.8974 76.9827 28.0528 77.5612 27.3483 78.2898C26.6439 79.0183 26.0942 79.882 25.7323 80.8286C25.3705 81.7753 25.204 82.7854 25.2429 83.7981L29.4648 213.146C29.5438 215.233 30.4239 217.21 31.9223 218.666C33.4206 220.122 35.4221 220.945 37.5111 220.964Z" fill="#3E97FF"/>
<path opacity="0.3" d="M221.902 79.894H32.2959H31.6601C26.8025 80.2914 27.4979 87.6623 32.3952 87.6623H222.319C227.207 87.6623 227.425 80.2914 222.538 79.894C222.329 79.904 222.11 79.894 221.902 79.894Z" fill="#263238"/>
<path d="M37.084 83.7979C37.092 84.0294 37.0532 84.2601 36.9698 84.4762C36.8864 84.6923 36.7602 84.8893 36.5988 85.0554C36.4373 85.2215 36.2439 85.3532 36.0303 85.4427C35.8167 85.5322 35.5871 85.5775 35.3555 85.576C34.878 85.5739 34.4197 85.388 34.0756 85.0569C33.7316 84.7258 33.5282 84.2749 33.5078 83.7979C33.4984 83.5656 33.5362 83.3338 33.619 83.1165C33.7018 82.8993 33.8278 82.701 33.9893 82.5339C34.1509 82.3667 34.3448 82.2341 34.5591 82.144C34.7734 82.0539 35.0038 82.0083 35.2363 82.0098C35.7162 82.0096 36.1773 82.196 36.5222 82.5297C36.867 82.8635 37.0685 83.3183 37.084 83.7979Z" fill="#263238"/>
<path d="M43.1634 83.7979C43.1729 84.0297 43.135 84.2611 43.0522 84.4778C42.9693 84.6945 42.8431 84.8921 42.6814 85.0585C42.5197 85.2249 42.3258 85.3566 42.1115 85.4455C41.8972 85.5345 41.667 85.5789 41.435 85.576C40.9582 85.5715 40.5012 85.3848 40.1577 85.0542C39.8142 84.7236 39.6101 84.2741 39.5873 83.7979C39.5779 83.5656 39.6157 83.3338 39.6985 83.1165C39.7812 82.8993 39.9072 82.701 40.0688 82.5339C40.2304 82.3667 40.4242 82.2341 40.6386 82.144C40.8529 82.0539 41.0833 82.0083 41.3158 82.0098C41.7956 82.0096 42.2568 82.196 42.6016 82.5297C42.9465 82.8635 43.148 83.3183 43.1634 83.7979Z" fill="#263238"/>
<path d="M48.7603 85.0771C49.441 84.3846 49.4125 83.2527 48.6965 82.5489C47.9805 81.845 46.8482 81.8359 46.1675 82.5284C45.4867 83.2208 45.5153 84.3528 46.2313 85.0566C46.9472 85.7605 48.0795 85.7696 48.7603 85.0771Z" fill="#263238"/>
<path d="M41.1866 208.05H222.597C222.964 208.053 223.328 207.981 223.667 207.839C224.006 207.698 224.312 207.488 224.568 207.225C224.823 206.961 225.022 206.648 225.153 206.305C225.284 205.962 225.344 205.596 225.329 205.229L221.852 98.8281C221.812 98.0758 221.489 97.3666 220.947 96.8431C220.405 96.3197 219.685 96.0209 218.932 96.0069H37.531C37.1638 96.0039 36.7998 96.0756 36.4611 96.2174C36.1225 96.3593 35.8161 96.5685 35.5607 96.8322C35.3052 97.096 35.106 97.409 34.9751 97.7521C34.8443 98.0951 34.7844 98.4612 34.7992 98.8281L38.2661 205.199C38.2988 205.957 38.6191 206.673 39.1617 207.203C39.7043 207.733 40.4285 208.035 41.1866 208.05Z" fill="white"/>
<g opacity="0.3">
<path d="M174.319 194.888H171.001V193.944H173.346L173.266 191.6L174.21 191.57L174.319 194.888Z" fill="#263238"/>
<path d="M165.726 194.887H160.452V193.894H165.726V194.887ZM155.177 194.887H149.952V193.894H155.226L155.177 194.887ZM144.627 194.887H139.352V193.894H144.627V194.887ZM134.077 194.887H128.803V193.894H134.057L134.077 194.887ZM123.538 194.887H118.253V193.894H123.538V194.887ZM112.988 194.887H107.713V193.894H112.988V194.887ZM102.438 194.887H97.1635V193.894H102.438V194.887Z" fill="#263238"/>
<path d="M91.8886 194.888H88.6005L88.5012 191.6L89.4349 191.57L89.5144 193.944H91.8886V194.888Z" fill="#263238"/>
<path d="M88.3621 186.325L88.1932 181.05H89.1866L89.3555 186.325H88.3621ZM88.0244 175.775L87.8456 170.5H88.7893L88.9581 175.775H88.0244ZM87.6767 165.225L87.5078 159.95H88.4416L88.6204 165.225H87.6767ZM87.329 154.686L87.1601 149.411H88.1038L88.2727 154.686H87.329ZM86.9912 144.136L86.8124 138.861H87.7562L87.925 144.136H86.9912ZM86.6436 133.576L86.4747 128.311H87.4085L87.5873 133.586L86.6436 133.576ZM86.2959 123.037L86.127 117.762H87.0707L87.2396 123.037H86.2959Z" fill="#263238"/>
<path d="M85.9184 112.477L85.8091 109.169H89.1171V110.113H86.7826L86.8522 112.447L85.9184 112.477Z" fill="#263238"/>
<path d="M162.965 110.113H157.69V109.169H162.965V110.113ZM152.415 110.113H147.14V109.169H152.415V110.113ZM141.865 110.113H136.591V109.169H141.865V110.113ZM131.316 110.113H126.041V109.169H131.316V110.113ZM120.766 110.113H115.491V109.169H120.766V110.113ZM110.216 110.113H104.942V109.169H110.216V110.113ZM99.6667 110.113H94.3919V109.169H99.6667V110.113Z" fill="#263238"/>
<path d="M170.683 112.477L170.604 110.113H168.24V109.169H171.518L171.627 112.447L170.683 112.477Z" fill="#263238"/>
<path d="M173.097 186.325L172.928 181.05H173.862L174.041 186.325H173.097ZM172.799 175.775L172.63 170.5H173.574L173.743 175.775H172.799ZM172.461 165.235L172.283 159.96H173.226L173.395 165.235H172.461ZM172.114 154.686L171.945 149.411H172.879L173.057 154.686H172.114ZM171.766 144.136L171.597 138.861H172.541L172.71 144.136H171.766ZM171.428 133.586L171.249 128.311H172.243L172.412 133.586H171.428ZM171.081 123.037L170.912 117.762H171.846L172.024 123.037H171.081Z" fill="#263238"/>
</g>
<path d="M148.779 165.464H114.101C110.884 165.438 107.801 164.175 105.491 161.937C103.181 159.699 101.821 156.658 101.693 153.444C101.58 150.556 102.546 147.73 104.402 145.515C106.259 143.301 108.873 141.856 111.736 141.464C112.487 138.594 114.169 136.054 116.519 134.244C118.869 132.433 121.753 131.454 124.72 131.46C127.161 131.464 129.561 132.097 131.687 133.297C133.813 134.498 135.594 136.226 136.859 138.315C137.949 137.977 139.085 137.806 140.226 137.808C143.184 137.836 146.03 138.945 148.226 140.927C150.422 142.909 151.817 145.627 152.147 148.566C153.662 149.29 154.952 150.411 155.879 151.811C156.807 153.211 157.336 154.836 157.412 156.513C157.457 157.674 157.268 158.831 156.854 159.916C156.44 161.001 155.811 161.991 155.004 162.827C154.198 163.662 153.23 164.326 152.161 164.777C151.091 165.229 149.941 165.459 148.779 165.454V165.464ZM124.72 133.775C122.142 133.759 119.64 134.644 117.645 136.276C115.65 137.908 114.288 140.186 113.793 142.715L113.624 143.6L112.73 143.659C110.296 143.808 108.017 144.904 106.381 146.712C104.745 148.521 103.883 150.898 103.978 153.335C104.08 155.949 105.186 158.424 107.066 160.245C108.945 162.065 111.454 163.091 114.071 163.109H148.75C149.599 163.117 150.441 162.952 151.225 162.624C152.009 162.296 152.717 161.812 153.308 161.201C153.899 160.591 154.36 159.867 154.662 159.073C154.965 158.279 155.102 157.432 155.067 156.583C155.004 155.232 154.549 153.93 153.756 152.834C152.964 151.738 151.87 150.897 150.607 150.414L149.892 150.136V149.371C149.766 146.884 148.695 144.54 146.899 142.816C145.103 141.091 142.716 140.118 140.226 140.093C139.041 140.09 137.867 140.32 136.769 140.768L135.776 141.166L135.289 140.232C134.285 138.294 132.769 136.669 130.905 135.534C129.042 134.399 126.902 133.798 124.72 133.795V133.775Z" fill="#515B60"/>
<path d="M138.786 154.218L129.22 144.95L120.259 154.218H125.504L125.822 163.795H133.859L133.541 154.218H138.786Z" fill="#515B60"/>
<line x1="48.7119" y1="223.731" x2="64.7119" y2="223.731" stroke="#C7C7C7"/>
<line x1="65.7119" y1="223.731" x2="72.7119" y2="223.731" stroke="#C7C7C7"/>
<path d="M264.23 139.676L261.051 147.742L266.306 152.649L270.597 143.103L264.23 139.676Z" fill="#FFB573"/>
<path d="M278.774 119.784L196.068 105.216L181.499 187.923L264.206 202.491L278.774 119.784Z" fill="#263238"/>
<path opacity="0.6" d="M278.774 119.784L196.068 105.216L181.499 187.923L264.206 202.491L278.774 119.784Z" fill="white"/>
<path opacity="0.3" d="M278.774 119.784L196.068 105.216L181.499 187.923L264.206 202.491L278.774 119.784Z" fill="#263238"/>
<path d="M274.035 123.095L199.38 109.945L186.23 184.6L260.885 197.75L274.035 123.095Z" fill="white"/>
<path opacity="0.3" d="M234.518 148.088C240.85 143.653 242.387 134.925 237.952 128.594C233.517 122.262 224.789 120.725 218.458 125.16C212.126 129.595 210.589 138.323 215.024 144.654C219.459 150.985 228.187 152.523 234.518 148.088Z" fill="#263238"/>
<path opacity="0.8" d="M243.985 157L218.962 174.523L207.458 158.093L188.574 171.315L186.23 184.616L260.882 197.758L263.226 184.467L243.985 157Z" fill="#263238"/>
</svg>
